<svg width="179" height="88" viewBox="0 0 179 88" fill="none" xmlns="http://www.w3.org/2000/svg">
<path d="M11.4722 74.718C11.4722 73.494 11.7482 72.396 12.3002 71.424C12.8522 70.44 13.6022 69.672 14.5502 69.12C15.5102 68.568 16.5722 68.292 17.7362 68.292C19.1042 68.292 20.2982 68.622 21.3182 69.282C22.3382 69.942 23.0822 70.878 23.5502 72.09H21.5882C21.2402 71.334 20.7362 70.752 20.0762 70.344C19.4282 69.936 18.6482 69.732 17.7362 69.732C16.8602 69.732 16.0742 69.936 15.3782 70.344C14.6822 70.752 14.1362 71.334 13.7402 72.09C13.3442 72.834 13.1462 73.71 13.1462 74.718C13.1462 75.714 13.3442 76.59 13.7402 77.346C14.1362 78.09 14.6822 78.666 15.3782 79.074C16.0742 79.482 16.8602 79.686 17.7362 79.686C18.6482 79.686 19.4282 79.488 20.0762 79.092C20.7362 78.684 21.2402 78.102 21.5882 77.346H23.5502C23.0822 78.546 22.3382 79.476 21.3182 80.136C20.2982 80.784 19.1042 81.108 17.7362 81.108C16.5722 81.108 15.5102 80.838 14.5502 80.298C13.6022 79.746 12.8522 78.984 12.3002 78.012C11.7482 77.04 11.4722 75.942 11.4722 74.718ZM32.5945 81L29.6065 75.87H27.6265V81H25.9885V68.454H30.0385C30.9865 68.454 31.7845 68.616 32.4325 68.94C33.0925 69.264 33.5845 69.702 33.9085 70.254C34.2325 70.806 34.3945 71.436 34.3945 72.144C34.3945 73.008 34.1425 73.77 33.6385 74.43C33.1465 75.09 32.4025 75.528 31.4065 75.744L34.5565 81H32.5945ZM27.6265 74.556H30.0385C30.9265 74.556 31.5925 74.34 32.0365 73.908C32.4805 73.464 32.7025 72.876 32.7025 72.144C32.7025 71.4 32.4805 70.824 32.0365 70.416C31.6045 70.008 30.9385 69.804 30.0385 69.804H27.6265V74.556ZM38.5777 69.786V73.98H43.1497V75.33H38.5777V79.65H43.6897V81H36.9397V68.436H43.6897V69.786H38.5777ZM45.5562 74.718C45.5562 73.494 45.8322 72.396 46.3842 71.424C46.9362 70.44 47.6862 69.672 48.6342 69.12C49.5942 68.568 50.6562 68.292 51.8202 68.292C53.1882 68.292 54.3822 68.622 55.4022 69.282C56.4222 69.942 57.1662 70.878 57.6342 72.09H55.6722C55.3242 71.334 54.8202 70.752 54.1602 70.344C53.5122 69.936 52.7322 69.732 51.8202 69.732C50.9442 69.732 50.1582 69.936 49.4622 70.344C48.7662 70.752 48.2202 71.334 47.8242 72.09C47.4282 72.834 47.2302 73.71 47.2302 74.718C47.2302 75.714 47.4282 76.59 47.8242 77.346C48.2202 78.09 48.7662 78.666 49.4622 79.074C50.1582 79.482 50.9442 79.686 51.8202 79.686C52.7322 79.686 53.5122 79.488 54.1602 79.092C54.8202 78.684 55.3242 78.102 55.6722 77.346H57.6342C57.1662 78.546 56.4222 79.476 55.4022 80.136C54.3822 80.784 53.1882 81.108 51.8202 81.108C50.6562 81.108 49.5942 80.838 48.6342 80.298C47.6862 79.746 46.9362 78.984 46.3842 78.012C45.8322 77.04 45.5562 75.942 45.5562 74.718ZM61.7105 68.454V81H60.0725V68.454H61.7105ZM71.3422 73.71V75.096H64.1602V73.71H71.3422ZM78.3943 81.126C77.5663 81.126 76.8223 80.982 76.1623 80.694C75.5143 80.394 75.0043 79.986 74.6323 79.47C74.2603 78.942 74.0683 78.336 74.0563 77.652H75.8023C75.8623 78.24 76.1023 78.738 76.5223 79.146C76.9543 79.542 77.5783 79.74 78.3943 79.74C79.1743 79.74 79.7863 79.548 80.2303 79.164C80.6863 78.768 80.9143 78.264 80.9143 77.652C80.9143 77.172 80.7823 76.782 80.5183 76.482C80.2543 76.182 79.9243 75.954 79.5283 75.798C79.1323 75.642 78.5983 75.474 77.9263 75.294C77.0983 75.078 76.4323 74.862 75.9283 74.646C75.4363 74.43 75.0103 74.094 74.6503 73.638C74.3023 73.17 74.1283 72.546 74.1283 71.766C74.1283 71.082 74.3023 70.476 74.6503 69.948C74.9983 69.42 75.4843 69.012 76.1083 68.724C76.7443 68.436 77.4703 68.292 78.2863 68.292C79.4623 68.292 80.4223 68.586 81.1663 69.174C81.9223 69.762 82.3483 70.542 82.4443 71.514H80.6443C80.5843 71.034 80.3323 70.614 79.8883 70.254C79.4443 69.882 78.8563 69.696 78.1243 69.696C77.4403 69.696 76.8823 69.876 76.4503 70.236C76.0183 70.584 75.8023 71.076 75.8023 71.712C75.8023 72.168 75.9283 72.54 76.1803 72.828C76.4443 73.116 76.7623 73.338 77.1343 73.494C77.5183 73.638 78.0523 73.806 78.7363 73.998C79.5643 74.226 80.2303 74.454 80.7343 74.682C81.2383 74.898 81.6703 75.24 82.0303 75.708C82.3903 76.164 82.5703 76.788 82.5703 77.58C82.5703 78.192 82.4083 78.768 82.0843 79.308C81.7603 79.848 81.2803 80.286 80.6443 80.622C80.0083 80.958 79.2583 81.126 78.3943 81.126ZM93.3687 72.126C93.3687 73.17 93.0087 74.04 92.2887 74.736C91.5807 75.42 90.4947 75.762 89.0307 75.762H86.6187V81H84.9807V68.454H89.0307C90.4467 68.454 91.5207 68.796 92.2527 69.48C92.9967 70.164 93.3687 71.046 93.3687 72.126ZM89.0307 74.412C89.9427 74.412 90.6147 74.214 91.0467 73.818C91.4787 73.422 91.6947 72.858 91.6947 72.126C91.6947 70.578 90.8067 69.804 89.0307 69.804H86.6187V74.412H89.0307ZM106.521 68.454V77.724C106.521 78.756 106.203 79.584 105.567 80.208C104.931 80.82 104.091 81.126 103.047 81.126C101.991 81.126 101.145 80.814 100.509 80.19C99.8734 79.554 99.5554 78.69 99.5554 77.598H101.193C101.205 78.21 101.361 78.708 101.661 79.092C101.973 79.476 102.435 79.668 103.047 79.668C103.659 79.668 104.115 79.488 104.415 79.128C104.715 78.756 104.865 78.288 104.865 77.724V68.454H106.521ZM109.28 79.686C110.804 78.462 111.998 77.46 112.862 76.68C113.726 75.888 114.452 75.066 115.04 74.214C115.64 73.35 115.94 72.504 115.94 71.676C115.94 70.896 115.748 70.284 115.364 69.84C114.992 69.384 114.386 69.156 113.546 69.156C112.73 69.156 112.094 69.414 111.638 69.93C111.194 70.434 110.954 71.112 110.918 71.964H109.334C109.382 70.62 109.79 69.582 110.558 68.85C111.326 68.118 112.316 67.752 113.528 67.752C114.764 67.752 115.742 68.094 116.462 68.778C117.194 69.462 117.56 70.404 117.56 71.604C117.56 72.6 117.26 73.572 116.66 74.52C116.072 75.456 115.4 76.284 114.644 77.004C113.888 77.712 112.922 78.54 111.746 79.488H117.938V80.856H109.28V79.686ZM119.796 71.262C119.88 70.158 120.306 69.294 121.074 68.67C121.842 68.046 122.838 67.734 124.062 67.734C124.878 67.734 125.58 67.884 126.168 68.184C126.768 68.472 127.218 68.868 127.518 69.372C127.83 69.876 127.986 70.446 127.986 71.082C127.986 71.826 127.77 72.468 127.338 73.008C126.918 73.548 126.366 73.896 125.682 74.052V74.142C126.462 74.334 127.08 74.712 127.536 75.276C127.992 75.84 128.22 76.578 128.22 77.49C128.22 78.174 128.064 78.792 127.752 79.344C127.44 79.884 126.972 80.31 126.348 80.622C125.724 80.934 124.974 81.09 124.098 81.09C122.826 81.09 121.782 80.76 120.966 80.1C120.15 79.428 119.694 78.48 119.598 77.256H121.182C121.266 77.976 121.56 78.564 122.064 79.02C122.568 79.476 123.24 79.704 124.08 79.704C124.92 79.704 125.556 79.488 125.988 79.056C126.432 78.612 126.654 78.042 126.654 77.346C126.654 76.446 126.354 75.798 125.754 75.402C125.154 75.006 124.248 74.808 123.036 74.808H122.622V73.44H123.054C124.158 73.428 124.992 73.248 125.556 72.9C126.12 72.54 126.402 71.988 126.402 71.244C126.402 70.608 126.192 70.098 125.772 69.714C125.364 69.33 124.776 69.138 124.008 69.138C123.264 69.138 122.664 69.33 122.208 69.714C121.752 70.098 121.482 70.614 121.398 71.262H119.796ZM131.223 81.108C130.911 81.108 130.647 81 130.431 80.784C130.215 80.568 130.107 80.304 130.107 79.992C130.107 79.68 130.215 79.416 130.431 79.2C130.647 78.984 130.911 78.876 131.223 78.876C131.523 78.876 131.775 78.984 131.979 79.2C132.195 79.416 132.303 79.68 132.303 79.992C132.303 80.304 132.195 80.568 131.979 80.784C131.775 81 131.523 81.108 131.223 81.108ZM136.587 74.232C135.915 73.968 135.399 73.584 135.039 73.08C134.679 72.576 134.499 71.964 134.499 71.244C134.499 70.596 134.661 70.014 134.985 69.498C135.309 68.97 135.789 68.556 136.425 68.256C137.073 67.944 137.853 67.788 138.765 67.788C139.677 67.788 140.451 67.944 141.087 68.256C141.735 68.556 142.221 68.97 142.545 69.498C142.881 70.014 143.049 70.596 143.049 71.244C143.049 71.94 142.863 72.552 142.491 73.08C142.119 73.596 141.609 73.98 140.961 74.232C141.705 74.46 142.293 74.862 142.725 75.438C143.169 76.002 143.391 76.686 143.391 77.49C143.391 78.27 143.199 78.954 142.815 79.542C142.431 80.118 141.885 80.568 141.177 80.892C140.481 81.204 139.677 81.36 138.765 81.36C137.853 81.36 137.049 81.204 136.353 80.892C135.669 80.568 135.135 80.118 134.751 79.542C134.367 78.954 134.175 78.27 134.175 77.49C134.175 76.686 134.391 75.996 134.823 75.42C135.255 74.844 135.843 74.448 136.587 74.232ZM141.465 71.442C141.465 70.71 141.225 70.146 140.745 69.75C140.265 69.354 139.605 69.156 138.765 69.156C137.937 69.156 137.283 69.354 136.803 69.75C136.323 70.146 136.083 70.716 136.083 71.46C136.083 72.132 136.329 72.672 136.821 73.08C137.325 73.488 137.973 73.692 138.765 73.692C139.569 73.692 140.217 73.488 140.709 73.08C141.213 72.66 141.465 72.114 141.465 71.442ZM138.765 74.952C137.877 74.952 137.151 75.162 136.587 75.582C136.023 75.99 135.741 76.608 135.741 77.436C135.741 78.204 136.011 78.822 136.551 79.29C137.103 79.758 137.841 79.992 138.765 79.992C139.689 79.992 140.421 79.758 140.961 79.29C141.501 78.822 141.771 78.204 141.771 77.436C141.771 76.632 141.495 76.02 140.943 75.6C140.391 75.168 139.665 74.952 138.765 74.952ZM152.82 71.082C152.556 69.75 151.734 69.084 150.354 69.084C149.286 69.084 148.488 69.498 147.96 70.326C147.432 71.142 147.174 72.492 147.186 74.376C147.462 73.752 147.918 73.266 148.554 72.918C149.202 72.558 149.922 72.378 150.714 72.378C151.95 72.378 152.934 72.762 153.666 73.53C154.41 74.298 154.782 75.36 154.782 76.716C154.782 77.532 154.62 78.264 154.296 78.912C153.984 79.56 153.504 80.076 152.856 80.46C152.22 80.844 151.446 81.036 150.534 81.036C149.298 81.036 148.332 80.76 147.636 80.208C146.94 79.656 146.454 78.894 146.178 77.922C145.902 76.95 145.764 75.75 145.764 74.322C145.764 69.918 147.3 67.716 150.372 67.716C151.548 67.716 152.472 68.034 153.144 68.67C153.816 69.306 154.212 70.11 154.332 71.082H152.82ZM150.372 73.764C149.856 73.764 149.37 73.872 148.914 74.088C148.458 74.292 148.086 74.61 147.798 75.042C147.522 75.462 147.384 75.978 147.384 76.59C147.384 77.502 147.648 78.246 148.176 78.822C148.704 79.386 149.46 79.668 150.444 79.668C151.284 79.668 151.95 79.41 152.442 78.894C152.946 78.366 153.198 77.658 153.198 76.77C153.198 75.834 152.958 75.102 152.478 74.574C151.998 74.034 151.296 73.764 150.372 73.764ZM156.596 78.102V76.86L162.914 68.112H164.876V76.68H166.676V78.102H164.876V81H163.256V78.102H156.596ZM163.328 69.822L158.486 76.68H163.328V69.822Z" fill="#FDFDFD"/>
<path d="M60.8235 11.0137V31H55.955V11.0137H60.8235ZM84.6226 14.9426C86.5966 14.9426 88.1624 15.5405 89.3202 16.7363C90.497 17.932 91.0854 19.5928 91.0854 21.7186V31H86.2454V22.3734C86.2454 21.3485 85.9702 20.5608 85.4198 20.0104C84.8883 19.441 84.1481 19.1563 83.1991 19.1563C82.2501 19.1563 81.5003 19.441 80.9499 20.0104C80.4185 20.5608 80.1527 21.3485 80.1527 22.3734V31H75.3128V22.3734C75.3128 21.3485 75.0375 20.5608 74.4871 20.0104C73.9557 19.441 73.2154 19.1563 72.2664 19.1563C71.3174 19.1563 70.5677 19.441 70.0172 20.0104C69.4858 20.5608 69.2201 21.3485 69.2201 22.3734V31H64.3516V15.1135H69.2201V17.1064C69.7136 16.4421 70.3589 15.9201 71.1561 15.5405C71.9532 15.1419 72.8548 14.9426 73.8608 14.9426C75.0565 14.9426 76.1194 15.1989 77.0495 15.7113C77.9985 16.2238 78.7387 16.9545 79.2702 17.9036C79.8206 17.0305 80.5703 16.3187 81.5193 15.7683C82.4683 15.2178 83.5028 14.9426 84.6226 14.9426ZM101.722 31.2278C100.165 31.2278 98.7609 30.8956 97.5082 30.2313C96.2745 29.567 95.297 28.618 94.5757 27.3842C93.8735 26.1505 93.5223 24.708 93.5223 23.0567C93.5223 21.4244 93.8829 19.9914 94.6042 18.7577C95.3254 17.505 96.3124 16.5465 97.5651 15.8822C98.8178 15.2178 100.222 14.8857 101.779 14.8857C103.335 14.8857 104.74 15.2178 105.992 15.8822C107.245 16.5465 108.232 17.505 108.953 18.7577C109.675 19.9914 110.035 21.4244 110.035 23.0567C110.035 24.689 109.665 26.1315 108.925 27.3842C108.204 28.618 107.207 29.567 105.935 30.2313C104.683 30.8956 103.278 31.2278 101.722 31.2278ZM101.722 27.0141C102.652 27.0141 103.44 26.6725 104.085 25.9892C104.749 25.3059 105.081 24.3284 105.081 23.0567C105.081 21.785 104.759 20.8076 104.113 20.1243C103.487 19.441 102.709 19.0993 101.779 19.0993C100.83 19.0993 100.042 19.441 99.4157 20.1243C98.7894 20.7886 98.4762 21.7661 98.4762 23.0567C98.4762 24.3284 98.7799 25.3059 99.3872 25.9892C100.014 26.6725 100.792 27.0141 101.722 27.0141ZM117.486 17.3626C117.942 16.6224 118.597 16.0245 119.451 15.569C120.305 15.1135 121.283 14.8857 122.383 14.8857C123.693 14.8857 124.879 15.2178 125.942 15.8822C127.005 16.5465 127.84 17.4955 128.448 18.7292C129.074 19.9629 129.387 21.3959 129.387 23.0283C129.387 24.6606 129.074 26.1031 128.448 27.3558C127.84 28.5895 127.005 29.548 125.942 30.2313C124.879 30.8956 123.693 31.2278 122.383 31.2278C121.264 31.2278 120.286 31.0095 119.451 30.5729C118.616 30.1174 117.961 29.5195 117.486 28.7793V31H112.618V9.93183H117.486V17.3626ZM124.433 23.0283C124.433 21.8135 124.092 20.8645 123.408 20.1812C122.744 19.4789 121.918 19.1278 120.931 19.1278C119.963 19.1278 119.138 19.4789 118.454 20.1812C117.79 20.8835 117.458 21.842 117.458 23.0567C117.458 24.2715 117.79 25.23 118.454 25.9323C119.138 26.6345 119.963 26.9857 120.931 26.9857C121.899 26.9857 122.725 26.6345 123.408 25.9323C124.092 25.211 124.433 24.243 124.433 23.0283ZM134.39 13.4622C133.536 13.4622 132.833 13.2154 132.283 12.7219C131.751 12.2095 131.486 11.5831 131.486 10.8429C131.486 10.0837 131.751 9.45732 132.283 8.96383C132.833 8.45136 133.536 8.19512 134.39 8.19512C135.225 8.19512 135.908 8.45136 136.44 8.96383C136.99 9.45732 137.265 10.0837 137.265 10.8429C137.265 11.5831 136.99 12.2095 136.44 12.7219C135.908 13.2154 135.225 13.4622 134.39 13.4622ZM136.81 15.1135V31H131.941V15.1135H136.81ZM145.206 9.93183V31H140.338V9.93183H145.206ZM147.766 23.0283C147.766 21.3959 148.07 19.9629 148.677 18.7292C149.304 17.4955 150.148 16.5465 151.211 15.8822C152.274 15.2178 153.461 14.8857 154.77 14.8857C155.89 14.8857 156.867 15.1135 157.703 15.569C158.557 16.0245 159.212 16.6224 159.667 17.3626V15.1135H164.536V31H159.667V28.7508C159.193 29.4911 158.528 30.0889 157.674 30.5445C156.839 31 155.862 31.2278 154.742 31.2278C153.451 31.2278 152.274 30.8956 151.211 30.2313C150.148 29.548 149.304 28.5895 148.677 27.3558C148.07 26.1031 147.766 24.6606 147.766 23.0283ZM159.667 23.0567C159.667 21.842 159.325 20.8835 158.642 20.1812C157.978 19.4789 157.162 19.1278 156.194 19.1278C155.226 19.1278 154.4 19.4789 153.717 20.1812C153.052 20.8645 152.72 21.8135 152.72 23.0283C152.72 24.243 153.052 25.211 153.717 25.9323C154.4 26.6345 155.226 26.9857 156.194 26.9857C157.162 26.9857 157.978 26.6345 158.642 25.9323C159.325 25.23 159.667 24.2715 159.667 23.0567ZM172.926 17.7612C173.496 16.8881 174.207 16.2048 175.061 15.7113C175.916 15.1989 176.865 14.9426 177.908 14.9426V20.0958H176.57C175.356 20.0958 174.445 20.3615 173.837 20.893C173.23 21.4054 172.926 22.3165 172.926 23.6261V31H168.058V15.1135H172.926V17.7612ZM56.741 44.0255C56.741 43.2511 56.9194 42.5564 57.2762 41.9415C57.6406 41.3265 58.1303 40.8482 58.7453 40.5066C59.3678 40.1573 60.0473 39.9827 60.7838 39.9827C61.6265 39.9827 62.3743 40.1915 63.0272 40.6091C63.6878 41.019 64.1661 41.6036 64.4622 42.3628H62.902C62.697 41.9453 62.4123 41.634 62.0479 41.429C61.6834 41.224 61.2621 41.1215 60.7838 41.1215C60.2599 41.1215 59.793 41.2392 59.383 41.4746C58.973 41.7099 58.6504 42.0478 58.415 42.4881C58.1873 42.9285 58.0734 43.4409 58.0734 44.0255C58.0734 44.6101 58.1873 45.1226 58.415 45.5629C58.6504 46.0033 58.973 46.3449 59.383 46.5879C59.793 46.8232 60.2599 46.9409 60.7838 46.9409C61.2621 46.9409 61.6834 46.8384 62.0479 46.6334C62.4123 46.4284 62.697 46.1172 62.902 45.6996H64.4622C64.1661 46.4588 63.6878 47.0434 63.0272 47.4534C62.3743 47.8633 61.6265 48.0683 60.7838 48.0683C60.0397 48.0683 59.3602 47.8975 58.7453 47.5559C58.1303 47.2066 57.6406 46.7245 57.2762 46.1096C56.9194 45.4946 56.741 44.7999 56.741 44.0255ZM68.7035 48.1025C68.1114 48.1025 67.5761 47.9696 67.0978 47.7039C66.6195 47.4306 66.2437 47.051 65.9704 46.5651C65.6971 46.0716 65.5604 45.5022 65.5604 44.8569C65.5604 44.2191 65.7009 43.6535 65.9818 43.16C66.2627 42.6665 66.6461 42.2869 67.132 42.0212C67.6179 41.7555 68.1607 41.6226 68.7605 41.6226C69.3603 41.6226 69.9031 41.7555 70.389 42.0212C70.8749 42.2869 71.2583 42.6665 71.5392 43.16C71.8201 43.6535 71.9606 44.2191 71.9606 44.8569C71.9606 45.4946 71.8163 46.0602 71.5278 46.5537C71.2393 47.0472 70.8445 47.4306 70.3435 47.7039C69.85 47.9696 69.3033 48.1025 68.7035 48.1025ZM68.7035 46.9751C69.0376 46.9751 69.3489 46.8953 69.6374 46.7359C69.9335 46.5765 70.1726 46.3373 70.3548 46.0185C70.5371 45.6996 70.6282 45.3124 70.6282 44.8569C70.6282 44.4013 70.5408 44.0179 70.3662 43.7066C70.1916 43.3878 69.96 43.1486 69.6715 42.9892C69.383 42.8298 69.0718 42.75 68.7377 42.75C68.4037 42.75 68.0924 42.8298 67.8039 42.9892C67.523 43.1486 67.299 43.3878 67.132 43.7066C66.965 44.0179 66.8814 44.4013 66.8814 44.8569C66.8814 45.5326 67.0523 46.0564 67.3939 46.4284C67.7431 46.7929 68.1797 46.9751 68.7035 46.9751ZM74.5422 42.6362C74.732 42.3173 74.9826 42.0705 75.2938 41.8959C75.6127 41.7137 75.9885 41.6226 76.4213 41.6226V42.9664H76.091C75.5823 42.9664 75.1952 43.0955 74.9294 43.3536C74.6713 43.6117 74.5422 44.0597 74.5422 44.6974V48H73.244V41.7251H74.5422V42.6362ZM78.9129 42.6362C79.1027 42.3173 79.3532 42.0705 79.6645 41.8959C79.9834 41.7137 80.3592 41.6226 80.7919 41.6226V42.9664H80.4617C79.953 42.9664 79.5658 43.0955 79.3001 43.3536C79.042 43.6117 78.9129 44.0597 78.9129 44.6974V48H77.6146V41.7251H78.9129V42.6362ZM87.7363 44.7088C87.7363 44.9442 87.7212 45.1567 87.6908 45.3465H82.8964C82.9343 45.8476 83.1203 46.25 83.4544 46.5537C83.7884 46.8574 84.1984 47.0092 84.6843 47.0092C85.3828 47.0092 85.8763 46.7169 86.1648 46.1323H87.5655C87.3757 46.7093 87.0303 47.1838 86.5292 47.5559C86.0357 47.9203 85.4207 48.1025 84.6843 48.1025C84.0845 48.1025 83.5455 47.9696 83.0672 47.7039C82.5965 47.4306 82.2245 47.051 81.9511 46.5651C81.6854 46.0716 81.5526 45.5022 81.5526 44.8569C81.5526 44.2115 81.6816 43.6459 81.9398 43.16C82.2055 42.6665 82.5737 42.2869 83.0444 42.0212C83.5227 41.7555 84.0693 41.6226 84.6843 41.6226C85.2765 41.6226 85.8042 41.7517 86.2673 42.0098C86.7304 42.2679 87.091 42.6324 87.3491 43.1031C87.6073 43.5662 87.7363 44.1014 87.7363 44.7088ZM86.3812 44.2988C86.3736 43.8205 86.2027 43.4371 85.8687 43.1486C85.5346 42.8601 85.1209 42.7159 84.6274 42.7159C84.1794 42.7159 83.796 42.8601 83.4772 43.1486C83.1583 43.4295 82.9685 43.8129 82.9078 44.2988H86.3812ZM90.5286 42.7842V46.2576C90.5286 46.493 90.5817 46.6638 90.688 46.7701C90.8019 46.8688 90.9917 46.9181 91.2574 46.9181H92.0546V48H91.0297C90.4451 48 89.9971 47.8633 89.6859 47.59C89.3746 47.3167 89.219 46.8726 89.219 46.2576V42.7842H88.4787V41.7251H89.219V40.1649H90.5286V41.7251H92.0546V42.7842H90.5286ZM95.973 48.1025C95.3808 48.1025 94.8455 47.9696 94.3672 47.7039C93.8889 47.4306 93.5131 47.051 93.2398 46.5651C92.9665 46.0716 92.8298 45.5022 92.8298 44.8569C92.8298 44.2191 92.9703 43.6535 93.2512 43.16C93.5321 42.6665 93.9155 42.2869 94.4014 42.0212C94.8873 41.7555 95.4301 41.6226 96.0299 41.6226C96.6297 41.6226 97.1725 41.7555 97.6584 42.0212C98.1443 42.2869 98.5277 42.6665 98.8086 43.16C99.0895 43.6535 99.23 44.2191 99.23 44.8569C99.23 45.4946 99.0857 46.0602 98.7972 46.5537C98.5087 47.0472 98.1139 47.4306 97.6129 47.7039C97.1194 47.9696 96.5727 48.1025 95.973 48.1025ZM95.973 46.9751C96.307 46.9751 96.6183 46.8953 96.9068 46.7359C97.2029 46.5765 97.442 46.3373 97.6242 46.0185C97.8065 45.6996 97.8976 45.3124 97.8976 44.8569C97.8976 44.4013 97.8103 44.0179 97.6356 43.7066C97.461 43.3878 97.2295 43.1486 96.941 42.9892C96.6525 42.8298 96.3412 42.75 96.0071 42.75C95.6731 42.75 95.3618 42.8298 95.0733 42.9892C94.7924 43.1486 94.5684 43.3878 94.4014 43.7066C94.2344 44.0179 94.1508 44.4013 94.1508 44.8569C94.1508 45.5326 94.3217 46.0564 94.6633 46.4284C95.0126 46.7929 95.4491 46.9751 95.973 46.9751ZM101.812 42.6362C102.001 42.3173 102.252 42.0705 102.563 41.8959C102.882 41.7137 103.258 41.6226 103.691 41.6226V42.9664H103.36C102.852 42.9664 102.465 43.0955 102.199 43.3536C101.941 43.6117 101.812 44.0597 101.812 44.6974V48H100.513V41.7251H101.812V42.6362ZM104.451 44.8341C104.451 44.2039 104.58 43.6459 104.838 43.16C105.104 42.6741 105.461 42.2983 105.909 42.0326C106.365 41.7593 106.866 41.6226 107.412 41.6226C107.906 41.6226 108.335 41.7213 108.699 41.9187C109.071 42.1085 109.367 42.3477 109.587 42.6362V41.7251H110.897V48H109.587V47.0662C109.367 47.3623 109.067 47.609 108.688 47.8064C108.308 48.0038 107.875 48.1025 107.389 48.1025C106.85 48.1025 106.357 47.9658 105.909 47.6925C105.461 47.4116 105.104 47.0244 104.838 46.5309C104.58 46.0298 104.451 45.4642 104.451 44.8341ZM109.587 44.8569C109.587 44.4241 109.496 44.0483 109.314 43.7294C109.139 43.4106 108.908 43.1676 108.619 43.0006C108.331 42.8336 108.02 42.75 107.686 42.75C107.351 42.75 107.04 42.8336 106.752 43.0006C106.463 43.16 106.228 43.3992 106.046 43.718C105.871 44.0293 105.784 44.4013 105.784 44.8341C105.784 45.2668 105.871 45.6464 106.046 45.9729C106.228 46.2994 106.463 46.5499 106.752 46.7245C107.048 46.8915 107.359 46.9751 107.686 46.9751C108.02 46.9751 108.331 46.8915 108.619 46.7245C108.908 46.5575 109.139 46.3145 109.314 45.9957C109.496 45.6692 109.587 45.2896 109.587 44.8569ZM116.859 40.0852V48H115.56V40.0852H116.859ZM126.159 41.6226C126.653 41.6226 127.093 41.7251 127.48 41.9301C127.875 42.1351 128.182 42.4388 128.403 42.8411C128.63 43.2435 128.744 43.7294 128.744 44.2988V48H127.457V44.4924C127.457 43.9306 127.317 43.5017 127.036 43.2056C126.755 42.9019 126.372 42.75 125.886 42.75C125.4 42.75 125.013 42.9019 124.724 43.2056C124.443 43.5017 124.303 43.9306 124.303 44.4924V48H123.016V44.4924C123.016 43.9306 122.876 43.5017 122.595 43.2056C122.314 42.9019 121.93 42.75 121.444 42.75C120.959 42.75 120.571 42.9019 120.283 43.2056C120.002 43.5017 119.861 43.9306 119.861 44.4924V48H118.563V41.7251H119.861V42.4426C120.074 42.1844 120.344 41.9832 120.67 41.839C120.997 41.6947 121.346 41.6226 121.718 41.6226C122.219 41.6226 122.667 41.7289 123.062 41.9415C123.456 42.1541 123.76 42.4615 123.973 42.8639C124.162 42.4843 124.459 42.1844 124.861 41.9643C125.263 41.7365 125.696 41.6226 126.159 41.6226ZM133.118 48.1025C132.526 48.1025 131.991 47.9696 131.512 47.7039C131.034 47.4306 130.658 47.051 130.385 46.5651C130.112 46.0716 129.975 45.5022 129.975 44.8569C129.975 44.2191 130.115 43.6535 130.396 43.16C130.677 42.6665 131.061 42.2869 131.546 42.0212C132.032 41.7555 132.575 41.6226 133.175 41.6226C133.775 41.6226 134.318 41.7555 134.804 42.0212C135.289 42.2869 135.673 42.6665 135.954 43.16C136.235 43.6535 136.375 44.2191 136.375 44.8569C136.375 45.4946 136.231 46.0602 135.942 46.5537C135.654 47.0472 135.259 47.4306 134.758 47.7039C134.264 47.9696 133.718 48.1025 133.118 48.1025ZM133.118 46.9751C133.452 46.9751 133.763 46.8953 134.052 46.7359C134.348 46.5765 134.587 46.3373 134.769 46.0185C134.952 45.6996 135.043 45.3124 135.043 44.8569C135.043 44.4013 134.955 44.0179 134.781 43.7066C134.606 43.3878 134.375 43.1486 134.086 42.9892C133.798 42.8298 133.486 42.75 133.152 42.75C132.818 42.75 132.507 42.8298 132.218 42.9892C131.937 43.1486 131.714 43.3878 131.546 43.7066C131.379 44.0179 131.296 44.4013 131.296 44.8569C131.296 45.5326 131.467 46.0564 131.808 46.4284C132.158 46.7929 132.594 46.9751 133.118 46.9751ZM138.957 42.6589C139.177 42.3552 139.477 42.1085 139.856 41.9187C140.244 41.7213 140.673 41.6226 141.143 41.6226C141.697 41.6226 142.199 41.7555 142.647 42.0212C143.094 42.2869 143.447 42.6665 143.706 43.16C143.964 43.6459 144.093 44.2039 144.093 44.8341C144.093 45.4642 143.964 46.0298 143.706 46.5309C143.447 47.0244 143.091 47.4116 142.635 47.6925C142.187 47.9658 141.69 48.1025 141.143 48.1025C140.657 48.1025 140.225 48.0076 139.845 47.8178C139.473 47.628 139.177 47.385 138.957 47.0889V48H137.658V39.5727H138.957V42.6589ZM142.772 44.8341C142.772 44.4013 142.681 44.0293 142.498 43.718C142.324 43.3992 142.088 43.16 141.792 43.0006C141.504 42.8336 141.193 42.75 140.859 42.75C140.532 42.75 140.221 42.8336 139.925 43.0006C139.636 43.1676 139.401 43.4106 139.219 43.7294C139.044 44.0483 138.957 44.4241 138.957 44.8569C138.957 45.2896 139.044 45.6692 139.219 45.9957C139.401 46.3145 139.636 46.5575 139.925 46.7245C140.221 46.8915 140.532 46.9751 140.859 46.9751C141.193 46.9751 141.504 46.8915 141.792 46.7245C142.088 46.5499 142.324 46.2994 142.498 45.9729C142.681 45.6464 142.772 45.2668 142.772 44.8341ZM146.037 40.8938C145.802 40.8938 145.604 40.814 145.445 40.6546C145.286 40.4952 145.206 40.2978 145.206 40.0624C145.206 39.8271 145.286 39.6297 145.445 39.4702C145.604 39.3108 145.802 39.2311 146.037 39.2311C146.265 39.2311 146.459 39.3108 146.618 39.4702C146.777 39.6297 146.857 39.8271 146.857 40.0624C146.857 40.2978 146.777 40.4952 146.618 40.6546C146.459 40.814 146.265 40.8938 146.037 40.8938ZM146.675 41.7251V48H145.377V41.7251H146.675ZM149.678 39.5727V48H148.379V39.5727H149.678ZM152.043 40.8938C151.807 40.8938 151.61 40.814 151.45 40.6546C151.291 40.4952 151.211 40.2978 151.211 40.0624C151.211 39.8271 151.291 39.6297 151.45 39.4702C151.61 39.3108 151.807 39.2311 152.043 39.2311C152.27 39.2311 152.464 39.3108 152.623 39.4702C152.783 39.6297 152.863 39.8271 152.863 40.0624C152.863 40.2978 152.783 40.4952 152.623 40.6546C152.464 40.814 152.27 40.8938 152.043 40.8938ZM152.68 41.7251V48H151.382V41.7251H152.68ZM153.952 44.8341C153.952 44.2039 154.081 43.6459 154.339 43.16C154.605 42.6741 154.962 42.2983 155.41 42.0326C155.865 41.7593 156.366 41.6226 156.913 41.6226C157.407 41.6226 157.836 41.7213 158.2 41.9187C158.572 42.1085 158.868 42.3477 159.088 42.6362V41.7251H160.398V48H159.088V47.0662C158.868 47.3623 158.568 47.609 158.189 47.8064C157.809 48.0038 157.376 48.1025 156.89 48.1025C156.351 48.1025 155.858 47.9658 155.41 47.6925C154.962 47.4116 154.605 47.0244 154.339 46.5309C154.081 46.0298 153.952 45.4642 153.952 44.8341ZM159.088 44.8569C159.088 44.4241 158.997 44.0483 158.815 43.7294C158.64 43.4106 158.409 43.1676 158.12 43.0006C157.832 42.8336 157.52 42.75 157.186 42.75C156.852 42.75 156.541 42.8336 156.253 43.0006C155.964 43.16 155.729 43.3992 155.547 43.718C155.372 44.0293 155.285 44.4013 155.285 44.8341C155.285 45.2668 155.372 45.6464 155.547 45.9729C155.729 46.2994 155.964 46.5499 156.253 46.7245C156.549 46.8915 156.86 46.9751 157.186 46.9751C157.52 46.9751 157.832 46.8915 158.12 46.7245C158.409 46.5575 158.64 46.3145 158.815 45.9957C158.997 45.6692 159.088 45.2896 159.088 44.8569ZM158.564 40.0396L156.048 41.281V40.3244L158.564 38.935V40.0396ZM163.401 42.6362C163.591 42.3173 163.842 42.0705 164.153 41.8959C164.472 41.7137 164.848 41.6226 165.28 41.6226V42.9664H164.95C164.441 42.9664 164.054 43.0955 163.789 43.3536C163.53 43.6117 163.401 44.0597 163.401 44.6974V48H162.103V41.7251H163.401V42.6362ZM167.134 40.8938C166.899 40.8938 166.702 40.814 166.542 40.6546C166.383 40.4952 166.303 40.2978 166.303 40.0624C166.303 39.8271 166.383 39.6297 166.542 39.4702C166.702 39.3108 166.899 39.2311 167.134 39.2311C167.362 39.2311 167.556 39.3108 167.715 39.4702C167.875 39.6297 167.954 39.8271 167.954 40.0624C167.954 40.2978 167.875 40.4952 167.715 40.6546C167.556 40.814 167.362 40.8938 167.134 40.8938ZM167.772 41.7251V48H166.474V41.7251H167.772ZM169.044 44.8341C169.044 44.2039 169.173 43.6459 169.431 43.16C169.697 42.6741 170.054 42.2983 170.501 42.0326C170.957 41.7593 171.458 41.6226 172.005 41.6226C172.498 41.6226 172.927 41.7213 173.292 41.9187C173.664 42.1085 173.96 42.3477 174.18 42.6362V41.7251H175.489V48H174.18V47.0662C173.96 47.3623 173.66 47.609 173.28 47.8064C172.901 48.0038 172.468 48.1025 171.982 48.1025C171.443 48.1025 170.949 47.9658 170.501 47.6925C170.054 47.4116 169.697 47.0244 169.431 46.5309C169.173 46.0298 169.044 45.4642 169.044 44.8341ZM174.18 44.8569C174.18 44.4241 174.089 44.0483 173.907 43.7294C173.732 43.4106 173.5 43.1676 173.212 43.0006C172.923 42.8336 172.612 42.75 172.278 42.75C171.944 42.75 171.633 42.8336 171.344 43.0006C171.056 43.16 170.82 43.3992 170.638 43.718C170.463 44.0293 170.376 44.4013 170.376 44.8341C170.376 45.2668 170.463 45.6464 170.638 45.9729C170.82 46.2994 171.056 46.5499 171.344 46.7245C171.64 46.8915 171.952 46.9751 172.278 46.9751C172.612 46.9751 172.923 46.8915 173.212 46.7245C173.5 46.5575 173.732 46.3145 173.907 45.9957C174.089 45.6692 174.18 45.2896 174.18 44.8569Z" fill="#FDFDFD"/>
<path d="M3.97461 46.2738H42.025" stroke="#FDFDFD" stroke-width="2.85378" stroke-miterlimit="10" stroke-linecap="round" stroke-linejoin="round"/>
<path d="M5.78125 46.2738L5.87638 23.3865C5.87638 22.226 6.42811 21.1225 7.34131 20.3996L20.6589 10.0309C22.0288 8.96546 23.9503 8.96546 25.3391 10.0309L38.6568 20.3806C39.589 21.1035 40.1217 22.207 40.1217 23.3865V46.2738" stroke="#FDFDFD" stroke-width="2.85378" stroke-miterlimit="10" stroke-linejoin="round"/>
<path d="M19.1939 35.3344V38.1882M20.1451 18.6874H25.8527M29.6577 25.3462H16.3401C14.761 25.3462 13.4863 26.6209 13.4863 28.2V46.2739H32.5115V28.2C32.5115 26.6209 31.2368 25.3462 29.6577 25.3462Z" stroke="#FDFDFD" stroke-width="2.85378" stroke-miterlimit="10" stroke-linecap="round" stroke-linejoin="round"/>
</svg>
